<svg width="146" height="66" viewBox="0 0 146 66" fill="none" xmlns="http://www.w3.org/2000/svg">
<path d="M11.6444 36.269V61.681H3.06714V12.0421C3.06714 7.00205 7.15268 2.9165 12.1928 2.9165H32.7673V10.7787H11.6435V28.4086" fill="white"/>
<path d="M28.8915 43.2578C30.7978 50.5635 36.5943 55.2488 43.3444 55.2488C48.5061 55.2488 53.3507 52.5491 55.8919 47.8639H64.1513C60.7366 56.9165 52.4773 62.7932 43.0275 62.7932C30.6394 62.7932 20.6331 51.8341 20.6331 40.0809C20.6331 26.1835 31.1157 16.4951 42.7897 16.4951C55.7343 16.4951 65.5813 26.5014 65.5813 39.1282C65.5813 40.478 65.5813 41.7486 65.3426 43.2578H28.8915ZM57.321 36.9048C56.6862 29.4406 50.0945 24.0395 43.0266 24.0395C35.9586 24.0395 29.5263 29.3605 28.8906 36.9048H57.3201H57.321Z" fill="white"/>
<path d="M69.0033 61.682V17.6865H76.7062V21.6568H76.8647C78.8503 18.7184 82.2649 16.813 88.0623 16.4951V24.9922C80.9151 25.2308 77.2618 29.5982 77.2618 36.9841V61.6811H69.0024L69.0033 61.682Z" fill="white"/>
<path d="M97.4661 49.8811C102.77 55.2552 110.132 56.4142 115.978 53.0391C120.449 50.4583 123.294 45.6974 123.152 40.37L130.304 36.2404C131.874 45.7874 127.66 55.0067 119.475 59.7316C108.747 65.9261 94.6016 61.438 88.725 51.2597C81.7768 39.2246 86.01 25.5929 96.1199 19.7559C107.33 13.284 120.861 17.0256 127.174 27.9603C127.85 29.1292 128.485 30.2296 129.033 31.656L97.4652 49.8811H97.4661ZM118.911 30.1647C114.629 24.018 106.221 22.6366 100.099 26.171C94.2531 29.5461 91.0681 37.529 94.29 44.3799L118.911 30.1647Z" fill="white"/>
<path d="M133.819 61.6823V2.91602H142.078V61.6814H133.819V61.6823Z" fill="white"/>
<path d="M44.924 36.9048H5.14551V43.2578H44.924V36.9048Z" fill="white"/>
</svg>
